<?xml version="1.0" ?><svg id="Layer_1" style="enable-background:new 0 0 100 100;" version="1.1" viewBox="0 0 100 100" xml:space="preserve" xmlns="http://www.w3.org/2000/svg" xmlns:xlink="http://www.w3.org/1999/xlink"><style type="text/css">
	.st0{fill:#394B9F;}
</style><g><g><path class="st0" d="M50,92.5c-19.5,0-30.2-7.5-30.6-7.8c-0.2-0.2-0.4-0.4-0.6-0.7c-0.1-0.3-0.2-0.5-0.2-0.8l0-49.7    c0-0.7,0.4-1.3,1-1.6c0.6-0.3,1.4-0.3,1.9,0.2c0.1,0.1,10.1,7.1,28.5,7.1s28.4-7,28.5-7.1c0.6-0.4,1.3-0.5,1.9-0.1    c0.6,0.3,1,0.9,1,1.6v49.6c0,0.6-0.3,1.2-0.8,1.6C80.1,85.1,69.4,92.5,50,92.5z M22.3,82.2c2.7,1.6,12.1,6.6,27.7,6.6    c15.5,0,25-5,27.7-6.6V36.7C73.3,39,63.9,42.8,50,42.8S26.7,39,22.3,36.7V82.2z"/></g><g><rect class="st0" height="5.4" width="3.7" x="48.1" y="28.1"/></g><g><path class="st0" d="M50,29.9c-2.2,0-4.3-0.9-5.9-2.6c-1.6-1.8-2.5-4.4-2.5-7.3c0-5.8,7.4-12.1,7.4-12.2c0.6-0.4,1.3-0.4,1.9,0    c0.1,0,7.4,6.4,7.4,12.2C58.4,26.5,54.2,29.9,50,29.9z M50,11.9c-1.9,2-4.7,5.4-4.7,8c0,4.3,2.4,6.3,4.7,6.3    c2.3,0,4.7-1.9,4.7-6.3C54.7,17.4,51.9,13.9,50,11.9z"/></g><g><path class="st0" d="M50,42.8c-19.8,0-30.6-7.7-30.7-7.8c-0.5-0.3-0.7-0.9-0.8-1.5c0-0.6,0.3-1.1,0.7-1.5    c0.1-0.1,9.2-6.7,26.2-7.7c0.5,0,1.1,0.2,1.4,0.6c0.8,0.8,1.9,1.3,3,1.3c1.1,0,2.2-0.5,3-1.3c0.4-0.4,0.9-0.6,1.4-0.6    c16.7,1,25.8,7.4,26.2,7.7c0.5,0.3,0.8,0.9,0.8,1.5c0,0.6-0.3,1.1-0.7,1.5C80.6,35.1,70,42.8,50,42.8z M24.1,33.5    c4.1,2.1,12.9,5.6,25.9,5.6c13,0,21.8-3.5,25.9-5.6c-3.5-1.8-10.6-4.7-20.9-5.4c-1.4,1.2-3.2,1.8-5,1.8s-3.6-0.6-5-1.8    C34.7,28.8,27.7,31.7,24.1,33.5z"/></g><g><path class="st0" d="M73.7,76c-4.3,0-7.8-3.5-7.8-7.8V59c0-2.2-1.8-4.1-4.1-4.1c-2.2,0-4.1,1.8-4.1,4.1v9.2c0,4.3-3.5,7.8-7.8,7.8    c-4.3,0-7.8-3.5-7.8-7.8v-4.5c0-2.2-1.8-4.1-4.1-4.1s-4.1,1.8-4.1,4.1v4.5c0,4.3-3.5,7.8-7.8,7.8c-4.3,0-7.8-3.5-7.8-7.7V33.5    c0-0.7,0.4-1.3,1-1.6c0.6-0.3,1.4-0.3,1.9,0.2c0.1,0.1,10.1,7.1,28.5,7.1s28.4-7,28.5-7.1c0.6-0.4,1.3-0.5,1.9-0.1    c0.6,0.3,1,0.9,1,1.6v34.7C81.4,72.5,77.9,76,73.7,76z M61.8,51.3c4.3,0,7.8,3.5,7.8,7.8v9.2c0,2.2,1.8,4.1,4.1,4.1    c2.2,0,4.1-1.8,4.1-4.1V36.7C73.3,39,63.9,42.8,50,42.8S26.7,39,22.3,36.7v31.5c0,2.2,1.8,4.1,4.1,4.1c2.2,0,4.1-1.8,4.1-4.1v-4.5    c0-4.3,3.5-7.8,7.8-7.8s7.8,3.5,7.8,7.8v4.5c0,2.2,1.8,4.1,4.1,4.1c2.2,0,4.1-1.8,4.1-4.1V59C54.1,54.8,57.5,51.3,61.8,51.3z"/></g></g></svg>