<?xml version="1.0" encoding="UTF-8"?>
<svg viewBox="0 0 146.71875 57.6875" xmlns="http://www.w3.org/2000/svg">
 <g transform="translate(-32.531 -39.324)">
  <path d="m135.34 43.324c17.247 3e-3 32.67 4.6296 43.688 11.281-1.6626 0.63813-3.3437 1.3153-5.0312 2-13.529-7.683-33.05-12.349-54.375-9.6562-2.7635 0.34885-5.594 0.80039-8.4062 1.4062-14.098 3.4813-26.673 8.6918-37.281 14.562v-0.8125c11.312-6.7022 25.097-12.713 40.812-16.594 2.8123-0.60586 5.6427-1.0886 8.4062-1.4375 4.1448-0.52328 8.2075-0.7507 12.188-0.75z" fill="#132c51"/>
  <path d="m134.97 44.043c-3.8263 0.01024-7.7363 0.24722-11.719 0.75-2.7298 0.3446-5.5289 0.83864-8.3125 1.4375h-0.0312c-5.0098 1.2382-9.7414 2.78-14.344 4.4062 3.3996-1.096 6.8659-2.0791 10.469-2.9688a0.73009 0.73009 0 0 1 0.0312 0c2.8358-0.61091 5.687-1.0864 8.4688-1.4375 21.315-2.691 40.802 1.9026 54.469 9.5625 1.0912-0.44101 2.1993-0.85991 3.2812-1.2812-10.872-6.2108-25.732-10.513-42.312-10.469z" fill="#ffd543"/>
  <path d="m122.19 52.543c24.183 0.12208 44.956 9.6298 57.062 21.188-1.6581 0.34047-3.3452 0.68247-5.0312 1.0625-13.705-12.381-37.451-22.056-64.438-19.75-13.185 1.5418-25.264 5.1884-35.844 9.5v-1.25c11.478-4.8188 24.934-8.6737 39.75-10.406 2.8672-0.24496 5.7146-0.35781 8.5-0.34375z" fill="#132c51"/>
  <path d="m122.19 53.168c-2.7662-0.01396-5.5892 0.10041-8.4375 0.34375-9.2178 1.0779-17.842 3.0195-25.844 5.4688 6.8467-2.0385 14.134-3.6646 21.812-4.5625 27-2.3068 50.766 7.2843 64.656 19.688 1.1672-0.26022 2.3166-0.48182 3.4688-0.71875-12.089-11.048-32.228-20.1-55.656-20.219z" fill="#ffd543"/>
  <path d="m106.69 60.949c5.353 0.02714 10.89 0.36347 16.562 1.0938 2.5797 0.41425 5.1118 0.9693 7.5625 1.5938 21.277 5.4215 37.499 18.346 45.625 31.188-1.5355-0.06435-3.1187-0.12055-4.6875-0.15625-9.3526-13.918-28.126-27.664-52.406-31.562-16.45-2.1179-31.935-0.29937-44.719 2.4688l0.15625-0.84375c9.2781-2.3519 20.13-3.841 31.906-3.7812z" fill="#132c51"/>
  <path d="m104.97 61.574c-1.9498 0.02204-3.8844 0.08767-5.7812 0.1875 6.4795-0.29131 13.257-0.11504 20.219 0.78125 24.292 3.9009 43.145 17.553 52.656 31.531 1.0855 0.0272 2.1205 0.0804 3.1875 0.125-8.222-12.389-23.949-24.779-44.562-30.031-2.4338-0.62014-4.9686-1.1197-7.5312-1.5312-6.2679-0.80699-12.338-1.1286-18.188-1.0625z" fill="#ffd543"/>
  <path transform="translate(22.5 6.293)" d="m112.84 37.031c-3.98-7e-4 -8.0427 0.22672-12.188 0.75-2.7635 0.34886-5.594 0.83164-8.4062 1.4375-15.716 3.8808-29.501 9.8916-40.812 16.594v0.8125c10.608-5.8707 23.183-11.081 37.281-14.562 2.8123-0.60586 5.6427-1.0574 8.4062-1.4062 21.325-2.6923 40.846 1.9732 54.375 9.6562 1.6876-0.68469 3.3686-1.3619 5.0312-2-11.018-6.6516-26.441-11.278-43.688-11.281zm-0.375 0.71875c16.581-0.04435 31.44 4.258 42.312 10.469-1.082 0.42134-2.1901 0.84024-3.2812 1.2812-13.667-7.66-33.153-12.254-54.469-9.5625-2.7817 0.35115-5.633 0.82659-8.4688 1.4375a0.73009 0.73009 0 0 0 -0.03125 0c-3.6028 0.88968-7.0691 1.8728-10.469 2.9688 4.6024-1.6263 9.334-3.1681 14.344-4.4062h0.03125c2.7836-0.59886 5.5827-1.0929 8.3125-1.4375 3.9824-0.50278 7.8924-0.73977 11.719-0.75zm-12.781 8.5c-2.7854-0.01406-5.6328 0.09879-8.5 0.34375-14.816 1.7325-28.272 5.5875-39.75 10.406v1.25c10.579-4.3116 22.659-7.9582 35.844-9.5 26.986-2.3056 50.733 7.369 64.438 19.75 1.686-0.38003 3.3731-0.72203 5.0312-1.0625-12.107-11.558-32.88-21.065-57.062-21.188zm0 0.625c23.429 0.11827 43.567 9.1704 55.656 20.219-1.1521 0.23693-2.3015 0.45853-3.4688 0.71875-13.89-12.403-37.656-21.994-64.656-19.688-7.6784 0.89785-14.966 2.524-21.812 4.5625 8.0019-2.4493 16.626-4.3909 25.844-5.4688 2.8483-0.24334 5.6713-0.35771 8.4375-0.34375zm-15.5 7.7812c-11.777-0.05971-22.628 1.4293-31.906 3.7812l-0.15625 0.84375c12.784-2.7681 28.269-4.5867 44.719-2.4688 24.28 3.8989 43.054 17.644 52.406 31.562 1.5688 0.03574 3.152 0.09189 4.6875 0.15625-8.1255-12.842-24.348-25.766-45.625-31.188-2.4507-0.62445-4.9828-1.1795-7.5625-1.5938-5.6721-0.73028-11.209-1.0666-16.562-1.0938zm-1.7188 0.625c5.8494-0.06612 11.92 0.25551 18.188 1.0625 2.5626 0.41151 5.0975 0.91111 7.5312 1.5312 20.613 5.2524 36.341 17.642 44.562 30.031-1.067-0.04462-2.102-0.09783-3.1875-0.125-9.5108-13.979-28.364-27.63-52.656-31.531-6.9615-0.89629-13.739-1.0726-20.219-0.78125 1.8969-0.09983 3.8314-0.16546 5.7812-0.1875z" fill="#d69600"/>
  <path transform="translate(22.5 6.293)" d="m24.469 33.031 5 22.031-19.438 11.562 22.5 2.0625 5 22.031 8.9062-20.75 22.5 2.0625-16.969-14.906 8.9062-20.75-19.406 11.562-17-14.906zm7.0312 10.781 8.0312 7.0625-6.2812 3.75-1.75-10.812zm21.188 2.6875-4.1875 9.8438-5.5312-4.7812 9.7188-5.0625zm-11.344 5.875 6.2812 5.8438-3.1875 8.1562-8.9375-0.71875-1.8438-8.9375 7.6875-4.3438zm-9.4062 6.0938 1.5625 7.1562-10.812-1.7812 9.25-5.375zm17.062 1.2812 7.8438 7.6562-10.656-0.90625 2.8125-6.75zm-13.094 7.5938 7.2812 0.65625-4.9062 9.7812-2.375-10.438z" fill="#d69600"/>
  <path transform="translate(22.5 6.293)" d="m27.062 37.344 4.1562 18.469-16.25 9.6562 18.844 1.75 4.1562 18.469 7.4688-17.406 18.844 1.75-14.219-12.5 7.4688-17.375-16.25 9.6875-14.219-12.5zm4.4375 6.4688 8.0312 7.0625-6.2812 3.75-1.75-10.812zm21.188 2.6875-4.1875 9.8438-5.5312-4.7812 9.7188-5.0625zm-11.344 5.875 6.2812 5.8438-3.1875 8.1562-8.9375-0.71875-1.8438-8.9375 7.6875-4.3438zm-9.4062 6.0938 1.5625 7.1562-10.812-1.7812 9.25-5.375zm17.062 1.2812 7.8438 7.6562-10.656-0.90625 2.8125-6.75zm-13.094 7.5938 7.2812 0.65625-4.9062 9.7812-2.375-10.438z" fill="#ffd543"/>
  <path d="m40.916 70.878 15.17 1.4834-0.29791-1.3829-9.5649-1.0881 8.2961-4.7877-0.47904-1.898-13.125 7.6734z" fill="#d69600"/>
  <path d="m77.587 49.166-5.8791 14.063-1.0768-0.91738 3.5722-8.9393-8.1461 5.0387-1.4447-1.3209 12.975-7.9244z" fill="#d69600"/>
  <path d="m51.354 46.66 11.498 10.007-1.2097 0.73332-7.3604-6.2045 2.2183 9.3181-1.7085 0.95547-3.4373-14.809z" fill="#d69600"/>
  <path d="m60.824 88.42-3.3431-14.871 1.4091 0.12503 2.2595 9.3576 3.7279-8.8233 1.9426 0.24128-5.996 13.971z" fill="#d69600"/>
  <path d="m83.562 74.791-15.197-1.1815 0.53417-1.3099 9.6082 0.59444-7.3354-6.1595 0.8023-1.7856 11.587 9.842z" fill="#d69600"/>
  <path d="m63.688 58.012-8.2812 4.8438 2.0312 9.375 9.5625 0.96875 3.8438-8.7812-7.1562-6.4062zm-0.125 1.6562 5.5938 5-3 6.875-7.4688-0.75-1.5938-7.3438 6.4688-3.7812z" fill="#d69600"/>
 </g>
</svg>
